<mxfile host="app.diagrams.net" agent="Mozilla/5.0 (Macintosh; Intel Mac OS X 10_15_7) AppleWebKit/537.36 (KHTML, like Gecko) Chrome/140.0.0.0 Safari/537.36" version="28.2.3">
  <diagram name="Страница — 1" id="IQXzP_xZAU_yh_Sl8FRq">
    <mxGraphModel dx="1456" dy="703" grid="1" gridSize="10" guides="1" tooltips="1" connect="1" arrows="1" fold="1" page="1" pageScale="1" pageWidth="827" pageHeight="1169" math="0" shadow="0">
      <root>
        <mxCell id="0" />
        <mxCell id="1" parent="0" />
        <mxCell id="cD_LOHN106aEncBf8dty-1" value="Suppliers" style="swimlane;fontStyle=0;childLayout=stackLayout;horizontal=1;startSize=26;fillColor=none;horizontalStack=0;resizeParent=1;resizeParentMax=0;resizeLast=0;collapsible=1;marginBottom=0;whiteSpace=wrap;html=1;" vertex="1" parent="1">
          <mxGeometry x="414" y="190" width="240" height="286" as="geometry" />
        </mxCell>
        <mxCell id="cD_LOHN106aEncBf8dty-2" value="supplier_id (int)(PK)" style="text;strokeColor=none;fillColor=none;align=left;verticalAlign=top;spacingLeft=4;spacingRight=4;overflow=hidden;rotatable=0;points=[[0,0.5],[1,0.5]];portConstraint=eastwest;whiteSpace=wrap;html=1;" vertex="1" parent="cD_LOHN106aEncBf8dty-1">
          <mxGeometry y="26" width="240" height="26" as="geometry" />
        </mxCell>
        <mxCell id="cD_LOHN106aEncBf8dty-6" value="&lt;div style=&quot;forced-color-adjust: none;&quot;&gt;name (varchar 255)&lt;/div&gt;" style="text;strokeColor=none;fillColor=none;align=left;verticalAlign=top;spacingLeft=4;spacingRight=4;overflow=hidden;rotatable=0;points=[[0,0.5],[1,0.5]];portConstraint=eastwest;whiteSpace=wrap;html=1;" vertex="1" parent="cD_LOHN106aEncBf8dty-1">
          <mxGeometry y="52" width="240" height="26" as="geometry" />
        </mxCell>
        <mxCell id="cD_LOHN106aEncBf8dty-8" value="&lt;div style=&quot;forced-color-adjust: none;&quot;&gt;inn (varchar 12)&lt;/div&gt;" style="text;strokeColor=none;fillColor=none;align=left;verticalAlign=top;spacingLeft=4;spacingRight=4;overflow=hidden;rotatable=0;points=[[0,0.5],[1,0.5]];portConstraint=eastwest;whiteSpace=wrap;html=1;" vertex="1" parent="cD_LOHN106aEncBf8dty-1">
          <mxGeometry y="78" width="240" height="26" as="geometry" />
        </mxCell>
        <mxCell id="cD_LOHN106aEncBf8dty-53" value="&lt;div style=&quot;forced-color-adjust: none;&quot;&gt;legal_zip_code (varchar 10)&lt;/div&gt;" style="text;strokeColor=none;fillColor=none;align=left;verticalAlign=top;spacingLeft=4;spacingRight=4;overflow=hidden;rotatable=0;points=[[0,0.5],[1,0.5]];portConstraint=eastwest;whiteSpace=wrap;html=1;" vertex="1" parent="cD_LOHN106aEncBf8dty-1">
          <mxGeometry y="104" width="240" height="26" as="geometry" />
        </mxCell>
        <mxCell id="cD_LOHN106aEncBf8dty-7" value="&lt;div style=&quot;forced-color-adjust: none;&quot;&gt;legal_city (varchar 100)&lt;/div&gt;" style="text;strokeColor=none;fillColor=none;align=left;verticalAlign=top;spacingLeft=4;spacingRight=4;overflow=hidden;rotatable=0;points=[[0,0.5],[1,0.5]];portConstraint=eastwest;whiteSpace=wrap;html=1;" vertex="1" parent="cD_LOHN106aEncBf8dty-1">
          <mxGeometry y="130" width="240" height="26" as="geometry" />
        </mxCell>
        <mxCell id="cD_LOHN106aEncBf8dty-9" value="&lt;div style=&quot;forced-color-adjust: none;&quot;&gt;legal_street_address (varcahr 255)&lt;/div&gt;" style="text;strokeColor=none;fillColor=none;align=left;verticalAlign=top;spacingLeft=4;spacingRight=4;overflow=hidden;rotatable=0;points=[[0,0.5],[1,0.5]];portConstraint=eastwest;whiteSpace=wrap;html=1;" vertex="1" parent="cD_LOHN106aEncBf8dty-1">
          <mxGeometry y="156" width="240" height="26" as="geometry" />
        </mxCell>
        <mxCell id="cD_LOHN106aEncBf8dty-54" value="&lt;div style=&quot;forced-color-adjust: none;&quot;&gt;bank_zip_code (varchar 10)&lt;/div&gt;" style="text;strokeColor=none;fillColor=none;align=left;verticalAlign=top;spacingLeft=4;spacingRight=4;overflow=hidden;rotatable=0;points=[[0,0.5],[1,0.5]];portConstraint=eastwest;whiteSpace=wrap;html=1;" vertex="1" parent="cD_LOHN106aEncBf8dty-1">
          <mxGeometry y="182" width="240" height="26" as="geometry" />
        </mxCell>
        <mxCell id="cD_LOHN106aEncBf8dty-55" value="&lt;div style=&quot;forced-color-adjust: none;&quot;&gt;bank_city (varchar 100)&lt;/div&gt;" style="text;strokeColor=none;fillColor=none;align=left;verticalAlign=top;spacingLeft=4;spacingRight=4;overflow=hidden;rotatable=0;points=[[0,0.5],[1,0.5]];portConstraint=eastwest;whiteSpace=wrap;html=1;" vertex="1" parent="cD_LOHN106aEncBf8dty-1">
          <mxGeometry y="208" width="240" height="26" as="geometry" />
        </mxCell>
        <mxCell id="cD_LOHN106aEncBf8dty-56" value="bank_street_address (varchar 255&lt;span style=&quot;color: rgba(0, 0, 0, 0); font-family: monospace; font-size: 0px; text-wrap-mode: nowrap;&quot;&gt;%3CmxGraphModel%3E%3Croot%3E%3CmxCell%20id%3D%220%22%2F%3E%3CmxCell%20id%3D%221%22%20parent%3D%220%22%2F%3E%3CmxCell%20id%3D%222%22%20value%3D%22%26lt%3Bdiv%20style%3D%26quot%3Bforced-color-adjust%3A%20none%3B%26quot%3B%26gt%3Binn%20(varchar%2012)%26lt%3B%2Fdiv%26gt%3B%22%20style%3D%22text%3BstrokeColor%3Dnone%3BfillColor%3Dnone%3Balign%3Dleft%3BverticalAlign%3Dtop%3BspacingLeft%3D4%3BspacingRight%3D4%3Boverflow%3Dhidden%3Brotatable%3D0%3Bpoints%3D%5B%5B0%2C0.5%5D%2C%5B1%2C0.5%5D%5D%3BportConstraint%3Deastwest%3BwhiteSpace%3Dwrap%3Bhtml%3D1%3B%22%20vertex%3D%221%22%20parent%3D%221%22%3E%3CmxGeometry%20x%3D%2260%22%20y%3D%22518%22%20width%3D%22180%22%20height%3D%2226%22%20as%3D%22geometry%22%2F%3E%3C%2FmxCell%3E%3C%2Froot%3E%3C%2FmxGraphModel%3E&lt;/span&gt;)" style="text;strokeColor=none;fillColor=none;align=left;verticalAlign=top;spacingLeft=4;spacingRight=4;overflow=hidden;rotatable=0;points=[[0,0.5],[1,0.5]];portConstraint=eastwest;whiteSpace=wrap;html=1;" vertex="1" parent="cD_LOHN106aEncBf8dty-1">
          <mxGeometry y="234" width="240" height="26" as="geometry" />
        </mxCell>
        <mxCell id="cD_LOHN106aEncBf8dty-57" value="&lt;div style=&quot;forced-color-adjust: none;&quot;&gt;inn (varchar 12)&lt;/div&gt;" style="text;strokeColor=none;fillColor=none;align=left;verticalAlign=top;spacingLeft=4;spacingRight=4;overflow=hidden;rotatable=0;points=[[0,0.5],[1,0.5]];portConstraint=eastwest;whiteSpace=wrap;html=1;" vertex="1" parent="cD_LOHN106aEncBf8dty-1">
          <mxGeometry y="260" width="240" height="26" as="geometry" />
        </mxCell>
        <mxCell id="cD_LOHN106aEncBf8dty-11" value="MaterialClasses" style="swimlane;fontStyle=0;childLayout=stackLayout;horizontal=1;startSize=26;fillColor=none;horizontalStack=0;resizeParent=1;resizeParentMax=0;resizeLast=0;collapsible=1;marginBottom=0;whiteSpace=wrap;html=1;" vertex="1" parent="1">
          <mxGeometry x="-500" y="294" width="160" height="78" as="geometry" />
        </mxCell>
        <mxCell id="cD_LOHN106aEncBf8dty-12" value="class_id (int)(PK)" style="text;strokeColor=none;fillColor=none;align=left;verticalAlign=top;spacingLeft=4;spacingRight=4;overflow=hidden;rotatable=0;points=[[0,0.5],[1,0.5]];portConstraint=eastwest;whiteSpace=wrap;html=1;" vertex="1" parent="cD_LOHN106aEncBf8dty-11">
          <mxGeometry y="26" width="160" height="26" as="geometry" />
        </mxCell>
        <mxCell id="cD_LOHN106aEncBf8dty-13" value="&lt;div style=&quot;forced-color-adjust: none;&quot;&gt;class name (varchar 255)&lt;/div&gt;" style="text;strokeColor=none;fillColor=none;align=left;verticalAlign=top;spacingLeft=4;spacingRight=4;overflow=hidden;rotatable=0;points=[[0,0.5],[1,0.5]];portConstraint=eastwest;whiteSpace=wrap;html=1;" vertex="1" parent="cD_LOHN106aEncBf8dty-11">
          <mxGeometry y="52" width="160" height="26" as="geometry" />
        </mxCell>
        <mxCell id="cD_LOHN106aEncBf8dty-18" value="MaterialGroups" style="swimlane;fontStyle=0;childLayout=stackLayout;horizontal=1;startSize=26;fillColor=none;horizontalStack=0;resizeParent=1;resizeParentMax=0;resizeLast=0;collapsible=1;marginBottom=0;whiteSpace=wrap;html=1;" vertex="1" parent="1">
          <mxGeometry x="-300" y="200" width="160" height="104" as="geometry" />
        </mxCell>
        <mxCell id="cD_LOHN106aEncBf8dty-19" value="group_id (int)(PK)" style="text;strokeColor=none;fillColor=none;align=left;verticalAlign=top;spacingLeft=4;spacingRight=4;overflow=hidden;rotatable=0;points=[[0,0.5],[1,0.5]];portConstraint=eastwest;whiteSpace=wrap;html=1;" vertex="1" parent="cD_LOHN106aEncBf8dty-18">
          <mxGeometry y="26" width="160" height="26" as="geometry" />
        </mxCell>
        <mxCell id="cD_LOHN106aEncBf8dty-20" value="&lt;div style=&quot;forced-color-adjust: none;&quot;&gt;group_name (varchar 255)&lt;/div&gt;" style="text;strokeColor=none;fillColor=none;align=left;verticalAlign=top;spacingLeft=4;spacingRight=4;overflow=hidden;rotatable=0;points=[[0,0.5],[1,0.5]];portConstraint=eastwest;whiteSpace=wrap;html=1;" vertex="1" parent="cD_LOHN106aEncBf8dty-18">
          <mxGeometry y="52" width="160" height="26" as="geometry" />
        </mxCell>
        <mxCell id="cD_LOHN106aEncBf8dty-21" value="&lt;div style=&quot;forced-color-adjust: none;&quot;&gt;class_id (int)(FK)&lt;/div&gt;" style="text;strokeColor=none;fillColor=none;align=left;verticalAlign=top;spacingLeft=4;spacingRight=4;overflow=hidden;rotatable=0;points=[[0,0.5],[1,0.5]];portConstraint=eastwest;whiteSpace=wrap;html=1;" vertex="1" parent="cD_LOHN106aEncBf8dty-18">
          <mxGeometry y="78" width="160" height="26" as="geometry" />
        </mxCell>
        <mxCell id="cD_LOHN106aEncBf8dty-22" value="Materials" style="swimlane;fontStyle=0;childLayout=stackLayout;horizontal=1;startSize=26;fillColor=none;horizontalStack=0;resizeParent=1;resizeParentMax=0;resizeLast=0;collapsible=1;marginBottom=0;whiteSpace=wrap;html=1;" vertex="1" parent="1">
          <mxGeometry x="-120" y="268" width="210" height="104" as="geometry" />
        </mxCell>
        <mxCell id="cD_LOHN106aEncBf8dty-23" value="material_id (int)(PK)" style="text;strokeColor=none;fillColor=none;align=left;verticalAlign=top;spacingLeft=4;spacingRight=4;overflow=hidden;rotatable=0;points=[[0,0.5],[1,0.5]];portConstraint=eastwest;whiteSpace=wrap;html=1;" vertex="1" parent="cD_LOHN106aEncBf8dty-22">
          <mxGeometry y="26" width="210" height="26" as="geometry" />
        </mxCell>
        <mxCell id="cD_LOHN106aEncBf8dty-24" value="&lt;div style=&quot;forced-color-adjust: none;&quot;&gt;material_name (varchar255)&lt;/div&gt;" style="text;strokeColor=none;fillColor=none;align=left;verticalAlign=top;spacingLeft=4;spacingRight=4;overflow=hidden;rotatable=0;points=[[0,0.5],[1,0.5]];portConstraint=eastwest;whiteSpace=wrap;html=1;" vertex="1" parent="cD_LOHN106aEncBf8dty-22">
          <mxGeometry y="52" width="210" height="26" as="geometry" />
        </mxCell>
        <mxCell id="cD_LOHN106aEncBf8dty-25" value="&lt;div style=&quot;forced-color-adjust: none;&quot;&gt;group_id (int)(FK)&lt;/div&gt;" style="text;strokeColor=none;fillColor=none;align=left;verticalAlign=top;spacingLeft=4;spacingRight=4;overflow=hidden;rotatable=0;points=[[0,0.5],[1,0.5]];portConstraint=eastwest;whiteSpace=wrap;html=1;" vertex="1" parent="cD_LOHN106aEncBf8dty-22">
          <mxGeometry y="78" width="210" height="26" as="geometry" />
        </mxCell>
        <mxCell id="cD_LOHN106aEncBf8dty-26" value="UnitsOfMeasure" style="swimlane;fontStyle=0;childLayout=stackLayout;horizontal=1;startSize=26;fillColor=none;horizontalStack=0;resizeParent=1;resizeParentMax=0;resizeLast=0;collapsible=1;marginBottom=0;whiteSpace=wrap;html=1;" vertex="1" parent="1">
          <mxGeometry x="-95" y="410" width="160" height="104" as="geometry" />
        </mxCell>
        <mxCell id="cD_LOHN106aEncBf8dty-27" value="unit_id (int)(PK)" style="text;strokeColor=none;fillColor=none;align=left;verticalAlign=top;spacingLeft=4;spacingRight=4;overflow=hidden;rotatable=0;points=[[0,0.5],[1,0.5]];portConstraint=eastwest;whiteSpace=wrap;html=1;" vertex="1" parent="cD_LOHN106aEncBf8dty-26">
          <mxGeometry y="26" width="160" height="26" as="geometry" />
        </mxCell>
        <mxCell id="cD_LOHN106aEncBf8dty-28" value="&lt;div style=&quot;forced-color-adjust: none;&quot;&gt;unit_name (varchar 255)&lt;/div&gt;" style="text;strokeColor=none;fillColor=none;align=left;verticalAlign=top;spacingLeft=4;spacingRight=4;overflow=hidden;rotatable=0;points=[[0,0.5],[1,0.5]];portConstraint=eastwest;whiteSpace=wrap;html=1;" vertex="1" parent="cD_LOHN106aEncBf8dty-26">
          <mxGeometry y="52" width="160" height="26" as="geometry" />
        </mxCell>
        <mxCell id="cD_LOHN106aEncBf8dty-29" value="&lt;div style=&quot;forced-color-adjust: none;&quot;&gt;abbreviation (varchar 10)&lt;/div&gt;" style="text;strokeColor=none;fillColor=none;align=left;verticalAlign=top;spacingLeft=4;spacingRight=4;overflow=hidden;rotatable=0;points=[[0,0.5],[1,0.5]];portConstraint=eastwest;whiteSpace=wrap;html=1;" vertex="1" parent="cD_LOHN106aEncBf8dty-26">
          <mxGeometry y="78" width="160" height="26" as="geometry" />
        </mxCell>
        <mxCell id="cD_LOHN106aEncBf8dty-30" value="DocumentTypes" style="swimlane;fontStyle=0;childLayout=stackLayout;horizontal=1;startSize=26;fillColor=none;horizontalStack=0;resizeParent=1;resizeParentMax=0;resizeLast=0;collapsible=1;marginBottom=0;whiteSpace=wrap;html=1;" vertex="1" parent="1">
          <mxGeometry x="414" y="507" width="160" height="78" as="geometry" />
        </mxCell>
        <mxCell id="cD_LOHN106aEncBf8dty-31" value="doc_type_id (int)(PK)" style="text;strokeColor=none;fillColor=none;align=left;verticalAlign=top;spacingLeft=4;spacingRight=4;overflow=hidden;rotatable=0;points=[[0,0.5],[1,0.5]];portConstraint=eastwest;whiteSpace=wrap;html=1;" vertex="1" parent="cD_LOHN106aEncBf8dty-30">
          <mxGeometry y="26" width="160" height="26" as="geometry" />
        </mxCell>
        <mxCell id="cD_LOHN106aEncBf8dty-32" value="&lt;div style=&quot;forced-color-adjust: none;&quot;&gt;doc_type_name (varchar 100)&lt;/div&gt;" style="text;strokeColor=none;fillColor=none;align=left;verticalAlign=top;spacingLeft=4;spacingRight=4;overflow=hidden;rotatable=0;points=[[0,0.5],[1,0.5]];portConstraint=eastwest;whiteSpace=wrap;html=1;" vertex="1" parent="cD_LOHN106aEncBf8dty-30">
          <mxGeometry y="52" width="160" height="26" as="geometry" />
        </mxCell>
        <mxCell id="cD_LOHN106aEncBf8dty-36" value="WarehouseReceipts" style="swimlane;fontStyle=0;childLayout=stackLayout;horizontal=1;startSize=26;fillColor=none;horizontalStack=0;resizeParent=1;resizeParentMax=0;resizeLast=0;collapsible=1;marginBottom=0;whiteSpace=wrap;html=1;" vertex="1" parent="1">
          <mxGeometry x="120" y="200" width="220" height="338" as="geometry" />
        </mxCell>
        <mxCell id="cD_LOHN106aEncBf8dty-37" value="receipt_id (int)(PK)" style="text;strokeColor=none;fillColor=none;align=left;verticalAlign=top;spacingLeft=4;spacingRight=4;overflow=hidden;rotatable=0;points=[[0,0.5],[1,0.5]];portConstraint=eastwest;whiteSpace=wrap;html=1;" vertex="1" parent="cD_LOHN106aEncBf8dty-36">
          <mxGeometry y="26" width="220" height="26" as="geometry" />
        </mxCell>
        <mxCell id="cD_LOHN106aEncBf8dty-42" value="order_number (varchar 50)" style="text;strokeColor=none;fillColor=none;align=left;verticalAlign=top;spacingLeft=4;spacingRight=4;overflow=hidden;rotatable=0;points=[[0,0.5],[1,0.5]];portConstraint=eastwest;whiteSpace=wrap;html=1;" vertex="1" parent="cD_LOHN106aEncBf8dty-36">
          <mxGeometry y="52" width="220" height="26" as="geometry" />
        </mxCell>
        <mxCell id="cD_LOHN106aEncBf8dty-43" value="receipt_date (date)" style="text;strokeColor=none;fillColor=none;align=left;verticalAlign=top;spacingLeft=4;spacingRight=4;overflow=hidden;rotatable=0;points=[[0,0.5],[1,0.5]];portConstraint=eastwest;whiteSpace=wrap;html=1;" vertex="1" parent="cD_LOHN106aEncBf8dty-36">
          <mxGeometry y="78" width="220" height="26" as="geometry" />
        </mxCell>
        <mxCell id="cD_LOHN106aEncBf8dty-44" value="supplier_id (int)(FK)" style="text;strokeColor=none;fillColor=none;align=left;verticalAlign=top;spacingLeft=4;spacingRight=4;overflow=hidden;rotatable=0;points=[[0,0.5],[1,0.5]];portConstraint=eastwest;whiteSpace=wrap;html=1;" vertex="1" parent="cD_LOHN106aEncBf8dty-36">
          <mxGeometry y="104" width="220" height="26" as="geometry" />
        </mxCell>
        <mxCell id="cD_LOHN106aEncBf8dty-83" value="balance_account (varchar 20)" style="text;strokeColor=none;fillColor=none;align=left;verticalAlign=top;spacingLeft=4;spacingRight=4;overflow=hidden;rotatable=0;points=[[0,0.5],[1,0.5]];portConstraint=eastwest;whiteSpace=wrap;html=1;" vertex="1" parent="cD_LOHN106aEncBf8dty-36">
          <mxGeometry y="130" width="220" height="26" as="geometry" />
        </mxCell>
        <mxCell id="cD_LOHN106aEncBf8dty-45" value="doc_type_id (int)(FK)" style="text;strokeColor=none;fillColor=none;align=left;verticalAlign=top;spacingLeft=4;spacingRight=4;overflow=hidden;rotatable=0;points=[[0,0.5],[1,0.5]];portConstraint=eastwest;whiteSpace=wrap;html=1;" vertex="1" parent="cD_LOHN106aEncBf8dty-36">
          <mxGeometry y="156" width="220" height="26" as="geometry" />
        </mxCell>
        <mxCell id="cD_LOHN106aEncBf8dty-58" value="document_number (varchar 50)" style="text;strokeColor=none;fillColor=none;align=left;verticalAlign=top;spacingLeft=4;spacingRight=4;overflow=hidden;rotatable=0;points=[[0,0.5],[1,0.5]];portConstraint=eastwest;whiteSpace=wrap;html=1;" vertex="1" parent="cD_LOHN106aEncBf8dty-36">
          <mxGeometry y="182" width="220" height="26" as="geometry" />
        </mxCell>
        <mxCell id="cD_LOHN106aEncBf8dty-47" value="material_id (int)(FK)" style="text;strokeColor=none;fillColor=none;align=left;verticalAlign=top;spacingLeft=4;spacingRight=4;overflow=hidden;rotatable=0;points=[[0,0.5],[1,0.5]];portConstraint=eastwest;whiteSpace=wrap;html=1;" vertex="1" parent="cD_LOHN106aEncBf8dty-36">
          <mxGeometry y="208" width="220" height="26" as="geometry" />
        </mxCell>
        <mxCell id="cD_LOHN106aEncBf8dty-84" value="material_account (varcahr 20)" style="text;strokeColor=none;fillColor=none;align=left;verticalAlign=top;spacingLeft=4;spacingRight=4;overflow=hidden;rotatable=0;points=[[0,0.5],[1,0.5]];portConstraint=eastwest;whiteSpace=wrap;html=1;" vertex="1" parent="cD_LOHN106aEncBf8dty-36">
          <mxGeometry y="234" width="220" height="26" as="geometry" />
        </mxCell>
        <mxCell id="cD_LOHN106aEncBf8dty-48" value="unit_id (int)(FK)" style="text;strokeColor=none;fillColor=none;align=left;verticalAlign=top;spacingLeft=4;spacingRight=4;overflow=hidden;rotatable=0;points=[[0,0.5],[1,0.5]];portConstraint=eastwest;whiteSpace=wrap;html=1;" vertex="1" parent="cD_LOHN106aEncBf8dty-36">
          <mxGeometry y="260" width="220" height="26" as="geometry" />
        </mxCell>
        <mxCell id="cD_LOHN106aEncBf8dty-46" value="quantity (decimal (18, 3))" style="text;strokeColor=none;fillColor=none;align=left;verticalAlign=top;spacingLeft=4;spacingRight=4;overflow=hidden;rotatable=0;points=[[0,0.5],[1,0.5]];portConstraint=eastwest;whiteSpace=wrap;html=1;" vertex="1" parent="cD_LOHN106aEncBf8dty-36">
          <mxGeometry y="286" width="220" height="26" as="geometry" />
        </mxCell>
        <mxCell id="cD_LOHN106aEncBf8dty-50" value="unit_price (decimal (18, 2))" style="text;strokeColor=none;fillColor=none;align=left;verticalAlign=top;spacingLeft=4;spacingRight=4;overflow=hidden;rotatable=0;points=[[0,0.5],[1,0.5]];portConstraint=eastwest;whiteSpace=wrap;html=1;" vertex="1" parent="cD_LOHN106aEncBf8dty-36">
          <mxGeometry y="312" width="220" height="26" as="geometry" />
        </mxCell>
        <mxCell id="cD_LOHN106aEncBf8dty-60" value="" style="endArrow=none;html=1;rounded=0;exitX=1;exitY=0.5;exitDx=0;exitDy=0;entryX=0;entryY=0.5;entryDx=0;entryDy=0;" edge="1" parent="1" source="cD_LOHN106aEncBf8dty-44" target="cD_LOHN106aEncBf8dty-2">
          <mxGeometry width="50" height="50" relative="1" as="geometry">
            <mxPoint x="270" y="298" as="sourcePoint" />
            <mxPoint x="430" y="328" as="targetPoint" />
          </mxGeometry>
        </mxCell>
        <mxCell id="cD_LOHN106aEncBf8dty-62" value="" style="endArrow=none;html=1;rounded=0;entryX=0;entryY=0.5;entryDx=0;entryDy=0;exitX=1;exitY=0.5;exitDx=0;exitDy=0;" edge="1" parent="1" source="cD_LOHN106aEncBf8dty-19" target="cD_LOHN106aEncBf8dty-23">
          <mxGeometry width="50" height="50" relative="1" as="geometry">
            <mxPoint x="430" y="510" as="sourcePoint" />
            <mxPoint x="480" y="460" as="targetPoint" />
          </mxGeometry>
        </mxCell>
        <mxCell id="cD_LOHN106aEncBf8dty-63" value="" style="endArrow=none;html=1;rounded=0;exitX=1;exitY=0.5;exitDx=0;exitDy=0;entryX=0;entryY=0.5;entryDx=0;entryDy=0;" edge="1" parent="1" source="cD_LOHN106aEncBf8dty-12" target="cD_LOHN106aEncBf8dty-19">
          <mxGeometry width="50" height="50" relative="1" as="geometry">
            <mxPoint x="430" y="510" as="sourcePoint" />
            <mxPoint x="480" y="460" as="targetPoint" />
          </mxGeometry>
        </mxCell>
        <mxCell id="cD_LOHN106aEncBf8dty-64" value="" style="endArrow=none;html=1;rounded=0;entryX=0;entryY=0.5;entryDx=0;entryDy=0;exitX=1;exitY=0.5;exitDx=0;exitDy=0;" edge="1" parent="1" source="cD_LOHN106aEncBf8dty-23" target="cD_LOHN106aEncBf8dty-47">
          <mxGeometry width="50" height="50" relative="1" as="geometry">
            <mxPoint x="50" y="460" as="sourcePoint" />
            <mxPoint x="100" y="410" as="targetPoint" />
          </mxGeometry>
        </mxCell>
        <mxCell id="cD_LOHN106aEncBf8dty-65" value="" style="endArrow=none;html=1;rounded=0;entryX=0;entryY=0.5;entryDx=0;entryDy=0;exitX=1;exitY=0.5;exitDx=0;exitDy=0;" edge="1" parent="1" source="cD_LOHN106aEncBf8dty-27" target="cD_LOHN106aEncBf8dty-48">
          <mxGeometry width="50" height="50" relative="1" as="geometry">
            <mxPoint x="50" y="460" as="sourcePoint" />
            <mxPoint x="100" y="410" as="targetPoint" />
          </mxGeometry>
        </mxCell>
        <mxCell id="cD_LOHN106aEncBf8dty-66" value="" style="endArrow=none;html=1;rounded=0;exitX=0;exitY=0.5;exitDx=0;exitDy=0;entryX=1;entryY=0.5;entryDx=0;entryDy=0;" edge="1" parent="1" source="cD_LOHN106aEncBf8dty-31" target="cD_LOHN106aEncBf8dty-45">
          <mxGeometry width="50" height="50" relative="1" as="geometry">
            <mxPoint x="100" y="460" as="sourcePoint" />
            <mxPoint x="390" y="380" as="targetPoint" />
          </mxGeometry>
        </mxCell>
        <mxCell id="cD_LOHN106aEncBf8dty-67" value="1" style="text;html=1;align=center;verticalAlign=middle;whiteSpace=wrap;rounded=0;" vertex="1" parent="1">
          <mxGeometry x="394" y="220" width="20" height="20" as="geometry" />
        </mxCell>
        <mxCell id="cD_LOHN106aEncBf8dty-69" value="1" style="text;html=1;align=center;verticalAlign=middle;whiteSpace=wrap;rounded=0;" vertex="1" parent="1">
          <mxGeometry x="394" y="550" width="20" height="20" as="geometry" />
        </mxCell>
        <mxCell id="cD_LOHN106aEncBf8dty-70" value="М" style="text;html=1;align=center;verticalAlign=middle;whiteSpace=wrap;rounded=0;" vertex="1" parent="1">
          <mxGeometry x="340" y="340" width="20" height="20" as="geometry" />
        </mxCell>
        <mxCell id="cD_LOHN106aEncBf8dty-68" value="М" style="text;html=1;align=center;verticalAlign=middle;whiteSpace=wrap;rounded=0;" vertex="1" parent="1">
          <mxGeometry x="340" y="284" width="20" height="20" as="geometry" />
        </mxCell>
        <mxCell id="cD_LOHN106aEncBf8dty-73" value="М" style="text;html=1;align=center;verticalAlign=middle;whiteSpace=wrap;rounded=0;" vertex="1" parent="1">
          <mxGeometry x="100" y="380" width="20" height="20" as="geometry" />
        </mxCell>
        <mxCell id="cD_LOHN106aEncBf8dty-74" value="М" style="text;html=1;align=center;verticalAlign=middle;whiteSpace=wrap;rounded=0;" vertex="1" parent="1">
          <mxGeometry x="100" y="430" width="20" height="20" as="geometry" />
        </mxCell>
        <mxCell id="cD_LOHN106aEncBf8dty-75" value="1" style="text;html=1;align=center;verticalAlign=middle;whiteSpace=wrap;rounded=0;" vertex="1" parent="1">
          <mxGeometry x="60" y="430" width="20" height="20" as="geometry" />
        </mxCell>
        <mxCell id="cD_LOHN106aEncBf8dty-76" value="1" style="text;html=1;align=center;verticalAlign=middle;whiteSpace=wrap;rounded=0;" vertex="1" parent="1">
          <mxGeometry x="90" y="294" width="20" height="20" as="geometry" />
        </mxCell>
        <mxCell id="cD_LOHN106aEncBf8dty-79" value="1" style="text;html=1;align=center;verticalAlign=middle;whiteSpace=wrap;rounded=0;" vertex="1" parent="1">
          <mxGeometry x="-140" y="304" width="20" height="20" as="geometry" />
        </mxCell>
        <mxCell id="cD_LOHN106aEncBf8dty-80" value="1" style="text;html=1;align=center;verticalAlign=middle;whiteSpace=wrap;rounded=0;" vertex="1" parent="1">
          <mxGeometry x="-140" y="230" width="20" height="20" as="geometry" />
        </mxCell>
        <mxCell id="cD_LOHN106aEncBf8dty-81" value="1" style="text;html=1;align=center;verticalAlign=middle;whiteSpace=wrap;rounded=0;" vertex="1" parent="1">
          <mxGeometry x="-320" y="220" width="20" height="20" as="geometry" />
        </mxCell>
        <mxCell id="cD_LOHN106aEncBf8dty-82" value="1" style="text;html=1;align=center;verticalAlign=middle;whiteSpace=wrap;rounded=0;" vertex="1" parent="1">
          <mxGeometry x="-340" y="333" width="20" height="20" as="geometry" />
        </mxCell>
      </root>
    </mxGraphModel>
  </diagram>
</mxfile>
